<svg viewBox="0 0 47 47" xmlns="http://www.w3.org/2000/svg">
  <circle cx="23.5" cy="23.5" r="23.5" fill="currentColor" fill-opacity="0.1" />
  <path d="M38.5 23.4015L39.1169 24.1886L38.5 22.4015L38.5 23.4015ZM9.5 23.4015L8.87572 22.6203L9.5 24.4015L9.5 23.4015ZM31.9016 5.5L20.4853 7.23247L27.6938 16.253L31.9016 5.5ZM20.6169 38.6886L39.1169 24.1886L37.8831 22.6145L19.3832 37.1145L20.6169 38.6886ZM38.5 22.4015L9.5 22.4015L9.5 24.4015L38.5 24.4015L38.5 22.4015ZM10.1243 24.1827L25.495 11.8997L24.2464 10.3373L8.87572 22.6203L10.1243 24.1827Z" fill="currentColor" />
  <path d="M22.6626 30.7767L22.5876 35.862L27.4007 37.5047L22.5412 39.0048L22.4662 44.0901L19.5379 39.9319L14.6783 41.432L17.728 37.3621L14.7997 33.2039L19.6128 34.8467L22.6626 30.7767Z" fill="currentColor" />
</svg>